<?xml version="1.0" standalone="yes"?>
<svg xmlns="http://www.w3.org/2000/svg" width="400" height="400">
<path style="fill:#fbfbfd; stroke:none;" d="M0 0L0 400L400 400L400 0L0 0z"/>
<path style="fill:#e1ba09; stroke:none;" d="M196 58C199.694 74.0972 215.162 91.8826 223.811 106C229.174 114.754 235.614 120.858 231 131L232 131C237.826 122.571 244.58 124 254 124L292 124C297.803 124 306.218 122.377 311 126C312.832 118.162 299.294 102.739 295.203 96C289.232 86.1641 281.607 64.9871 271.674 59.0278C266.545 55.9503 255.842 58 250 58L196 58z"/>
<path style="fill:#eb5d0e; stroke:none;" d="M196 190L248 190C254.513 190 264.765 191.945 270.815 189.397C275.884 187.262 279.264 178.451 282.05 174C291.095 159.549 307.2 140.558 311 124L258 124L236.326 125.028L223.6 144L196 190z"/>
<path style="fill:#e1ba09; stroke:none;" d="M157 126C143.637 146.195 127.353 168.684 118 191L272 191L272 190L194 190L159 126L157 126M310 127L311 128L310 127M309 128L310 129L309 128M308 130L309 131L308 130M230 132L231 133L230 132M307 132L308 133L307 132M229.333 133.667L229.667 134.333L229.333 133.667M306 133L307 134L306 133M305.333 134.667L305.667 135.333L305.333 134.667M228 135L229 136L228 135M304.333 136.667L304.667 137.333L304.333 136.667M227 137L228 138L227 137M226.333 138.667L226.667 139.333L226.333 138.667M303 138L304 139L303 138M302.333 139.667L302.667 140.333L302.333 139.667M225 140L226 141L225 140M224 142L225 143L224 142M301 142L302 143L301 142M223.333 143.667L223.667 144.333L223.333 143.667M300 143L301 144L300 143M222 145L223 146L222 145M299 145L300 146L299 145M221.333 146.667L221.667 147.333L221.333 146.667M298.333 146.667L298.667 147.333L298.333 146.667M220.333 148.667L220.667 149.333L220.333 148.667M297 148L298 149L297 148M296.333 149.667L296.667 150.333L296.333 149.667M219 150L220 151L219 150M218.333 151.667L218.667 152.333L218.333 151.667M295 151L296 152L295 151M217.333 153.667L217.667 154.333L217.333 153.667M294 153L295 154L294 153M216 155L217 156L216 155M293 155L294 156L293 155M215.333 156.667L215.667 157.333L215.333 156.667M292.333 156.667L292.667 157.333L292.333 156.667M214 158L215 159L214 158M291 158L292 159L291 158M290.333 159.667L290.667 160.333L290.333 159.667M213 160L214 161L213 160M212.333 161.667L212.667 162.333L212.333 161.667M289 161L290 162L289 161M288.333 162.667L288.667 163.333L288.333 162.667M211.333 163.667L211.667 164.333L211.333 163.667M287.333 164.667L287.667 165.333L287.333 164.667M210 165L211 166L210 165M209.333 166.667L209.667 167.333L209.333 166.667M286 166L287 167L286 166M208 168L209 169L208 168M285 168L286 169L285 168M207 170L208 171L207 170M284 170L285 171L284 170M206.333 171.667L206.667 172.333L206.333 171.667M283 171L284 172L283 171M205 173L206 174L205 173M282 173L283 174L282 173M281.333 174.667L281.667 175.333L281.333 174.667M204 175L205 176L204 175M203.333 176.667L203.667 177.333L203.333 176.667M280 176L281 177L280 176M202 178L203 179L202 178M279 178L280 179L279 178M201.333 179.667L201.667 180.333L201.333 179.667M278.333 179.667L278.667 180.333L278.333 179.667M200 181L201 182L200 181M277 181L278 182L277 181M276.333 182.667L276.667 183.333L276.333 182.667M199 183L200 184L199 183M275 184L276 185L275 184M198 185L199 186L198 185M197.333 186.667L197.667 187.333L197.333 186.667M274 186L275 187L274 186M273.333 187.667L273.667 188.333L273.333 187.667M196 188L197 189L196 188M272 189L273 190L272 189z"/>
<path style="fill:#32ace3; stroke:none;" d="M78 257L131 257C137.375 257 147.796 258.998 153.674 256.397C159.023 254.029 162.163 244.725 165.061 240C174.376 224.812 188.594 207.965 194 191L141 191L118.21 191.742L106.873 208L78 257M196 191L224.861 239L236.213 255.972L258 257L311 257L283.204 211L270.532 192.028L249 191L196 191z"/>
<path style="fill:#095fab; stroke:none;" d="M82 252L83 253L82 252M80 255L80 256L153 256L130 255L80 255z"/>
<path style="fill:#32ace3; stroke:none;" d="M170 293L171 293L183 288L182 297L183 297L184 287C178.996 288.032 172.74 288.306 170 293M217 296L218 296C219.561 290.618 225.761 287.565 231 290C232.229 286.76 217.413 287.589 217 296M308 296L309 296C310.704 290.126 316.313 288.763 322 289L322 288C315.954 286.619 308.521 289.407 308 296z"/>
<path style="fill:#095fab; stroke:none;" d="M182 288C178.942 289.147 174.094 289.359 171.742 291.738C169.209 294.3 169.34 299.663 168.525 303C165.933 313.624 159.715 331.422 162 342L171.683 340.802L177 324L179 324L188 342L201 341L191.816 321.001L207 303L193.039 304.028L178 318C179.08 309.499 185.283 296.049 182 288z"/>
<path style="fill:#e1ba09; stroke:none;" d="M184 288L185 289L184 288z"/>
<path style="fill:#095fab; stroke:none;" d="M217 298C225.923 298 230.183 297.984 231 288C223.761 289.493 218.736 290.07 217 298M307 305C300.481 302.668 294.975 299.496 288.001 302.653C277.375 307.462 271.066 329.372 279.513 338.606C285.927 345.617 292.122 339.103 299 338.662C302.859 338.415 306.686 343.483 310.436 340.301C313.585 337.629 313.591 330.776 314.25 327C316.294 315.283 322.741 299.719 321 288C310.205 291.035 308.421 293.813 307 305z"/>
<path style="fill:#e1ba09; stroke:none;" d="M309 290L310 291L309 290z"/>
<path style="fill:#32ace3; stroke:none;" d="M321 291L321 294L322 294L321 291M230 292L230 295L231 295L230 292z"/>
<path style="fill:#e1ba09; stroke:none;" d="M79 294L80 295L79 294z"/>
<path style="fill:#32ace3; stroke:none;" d="M169 294L169 299L170 299L169 294M320 294L319 305L320 305L320 294M77 295L76 303L77 303L79 295L77 295z"/>
<path style="fill:#095fab; stroke:none;" d="M79 295C74.0832 306.428 67.9602 329.745 70 342L81 342C82.4931 337.591 82.4163 326.272 87.213 324.176C93.6591 321.359 95.7682 338.368 97 342L109 342L103 322C112.014 318.221 121.88 304.117 108.957 297.573C100.285 293.181 88.3618 297.229 79 295z"/>
<path style="fill:#32ace3; stroke:none;" d="M80 295L80 296L106 296L80 295M106 296L106 297L109 297L106 296M229 296L217 298L217 299C219.858 299 230.731 300.591 229 296M109.667 297.333L110.333 297.667L109.667 297.333M216 297L217 298L216 297M307 297L307 302L308 302L307 297M111 298L112 299L111 298M112 299L113 300L112 299M168 299L168 304L169 304L168 299M113.333 300.667L113.667 301.333L113.333 300.667M181 300L181 303L182 303L181 300M292 300L292 301L298 301L292 300M129 342L129 341C97.13 326.943 143.721 280.81 158 313C159.455 304.048 146.834 300.672 140 301.094C120.388 302.305 105.526 335.023 129 342M233 318L234 318C234.799 313.878 234.897 302.931 241.005 303.462C244.908 303.802 246.748 308.082 251.015 306.817C256.999 305.043 263.882 298.574 269.482 305.228C274.557 311.258 268.895 324.958 268 332C272.158 325.07 276.842 304.321 265.995 301.438C259.687 299.76 255.704 305.039 250 305.327C246.715 305.493 244.293 302.424 241.005 302.207C233.717 301.726 233.663 312.868 233 318M288 301L288 302L292 302L288 301M298 301L298 302L303 303L298 301M114.333 302.667L114.667 303.333L114.333 302.667z"/>
<path style="fill:#095fab; stroke:none;" d="M154 333C151.226 332.243 147.92 330.439 145 330.917C140.649 331.629 132.77 338.648 130.752 330C129.509 324.677 136.774 325.007 140 325C150.446 324.979 164.385 326.252 157.633 311.015C147.313 287.725 111.053 310.596 119.424 332.996C124.912 347.682 146.843 343.047 154 333z"/>
<path style="fill:#32ace3; stroke:none;" d="M193 302L193 303L208 304L193 302M213 316L214 316C214.515 309.487 220.959 295.139 228 306C229.154 300.862 219.446 300.959 216.434 303.028C213.01 305.379 213.159 312.292 213 316z"/>
<path style="fill:#095fab; stroke:none;" d="M229 341L240 342C243.791 334.256 242.412 323.341 246.988 316.213C249.527 312.259 257.448 309.439 258.512 316.02C259.724 323.511 254.977 333.436 254 341L265 342C267.977 334.466 277.227 306.935 266.945 302.743C260.455 300.097 255.919 305.67 250.039 306.493C245.776 307.09 242.037 300.625 237.6 304.029C235.132 305.922 235.208 311.203 234.525 314C232.364 322.856 230.15 331.952 229 341z"/>
<path style="fill:#32ace3; stroke:none;" d="M286.667 302.333L287.333 302.667L286.667 302.333M306 302L304 304L304 305C306.251 304.527 307.118 304.14 306 302M88 311L89 311C89.9733 302.364 99.197 302.206 102 310C104.232 301.576 88.5996 300.086 88 311M180 303L180 308L181 308L180 303M192 303L193 304L192 303z"/>
<path style="fill:#095fab; stroke:none;" d="M208 341L220 342L228 303L216.742 304.028L213.803 314L208 341z"/>
<path style="fill:#32ace3; stroke:none;" d="M285 303L286 304L285 303M303 303L304 304L303 303z"/>
<path style="fill:#fbfbfd; stroke:none;" d="M88 314C90.3134 314 92.6919 314.146 94.9977 313.941C109.429 312.659 94.7863 297.403 89.7029 306.318C88.4519 308.512 88.3166 311.55 88 314z"/>
<path style="fill:#32ace3; stroke:none;" d="M115 304L115 311L116 311L115 304M191 304L192 305L191 304M206 304L207 305L206 304M282 307L285 304L282 307M75 305L75 308L76 308L75 305M167.333 305.667L167.667 306.333L167.333 305.667M190 305L191 306L190 305M205 305L206 306L205 305z"/>
<path style="fill:#e1ba09; stroke:none;" d="M282 305L283 306L282 305z"/>
<path style="fill:#32ace3; stroke:none;" d="M318 305L317 315L318 315L318 305M189 306L190 307L189 306M204 306L205 307L204 306M188 307L187 310L188 307M203 307L204 308L203 307M227.333 307.667L227.667 308.333L227.333 307.667M281 307L282 308L281 307M74 308L74 314L75 314L74 308M179 308L179 314L180 314L179 308M202 308L203 309L202 308M280.333 308.667L280.667 309.333L280.333 308.667M133 314C134.593 312.998 136.259 311.677 138.025 310.988C150.96 305.949 141.172 327.605 133 315C131.731 320.648 144.635 320.42 146.727 316.686C151.458 308.239 136.903 308.877 133 314M166 309L166 313L167 313L166 309M201 309L199 313L201 309M291 316L292 316C301.602 304.733 303.597 317.524 302 326C309.484 315.23 298.248 302.442 291 316z"/>
<path style="fill:#e1ba09; stroke:none;" d="M101 310L102 311L101 310z"/>
<path style="fill:#fbfbfd; stroke:none;" d="M133 318L139.004 317.999C154.905 317.887 135.538 301.611 133 318z"/>
<path style="fill:#32ace3; stroke:none;" d="M186 310L187 311L186 310M226 310L226 315L227 315L226 310M279 310L280 311L279 310z"/>
<path style="fill:#fbfbfd; stroke:none;" d="M298.01 310.881C289.273 312.083 284.356 334.425 295.999 332.752C304.003 331.603 307.49 309.577 298.01 310.881z"/>
<path style="fill:#32ace3; stroke:none;" d="M101 311L100 313L102 313L101 311M114 311L114 314L115 314L114 311M185 311L186 312L185 311M253 311L253 312L257 312L253 311M87.3333 312.667L87.6667 313.333L87.3333 312.667M184 312L185 313L184 312M251.667 312.333L252.333 312.667L251.667 312.333M257 312L258 313L257 312M278.333 312.667L278.667 313.333L278.333 312.667M99 313L100 314L99 313M165 313L165 319L166 319L165 313M183 313L184 314L183 313M198 313L199 314L198 313M249.667 313.333L250.333 313.667L249.667 313.333M258 313L258 319L259 319L258 313M73 314L73 318L74 318L73 314M88 314L88 315L98 315L88 314M113.333 314.667L113.667 315.333L113.333 314.667M178 314L178 318L182 315L178 314M182 314L183 315L182 314M191 321L198 314L191 321M247.667 314.333L248.333 314.667L247.667 314.333M277 314L277 317L278 317L277 314M225 315L225 320L226 320L225 315M246 315L246 320L247 320L246 315M112 316L113 317L112 316M159 316L159 321L160 321L159 316M111 317L112 318L111 317M212 317L212 322L213 322L212 317z"/>
<path style="fill:#e1ba09; stroke:none;" d="M276 317L277 318L276 317z"/>
<path style="fill:#32ace3; stroke:none;" d="M290.333 317.667L290.667 318.333L290.333 317.667M316.333 317.667L316.667 318.333L316.333 317.667M110 318L111 319L110 318M276 318L276 322L277 322L276 318M108.667 319.333L109.333 319.667L108.667 319.333M164 319L164 325L165 325L164 319M232 319L232 324L233 324L232 319M257 319L257 325L258 325L257 319M289 319L288 330L289 330L289 319M72 320L72 324L73 324L72 320M106.667 320.333L107.333 320.667L106.667 320.333M224 320L224 326L225 326L224 320M245 320L245 323L246 323L245 320M315 320L315 325L316 325L315 320M104.667 321.333L105.333 321.667L104.667 321.333M103.333 322.667L103.667 323.333L103.333 322.667M191.333 322.667L191.667 323.333L191.333 322.667M211 322L211 326L212 326L211 322M86 323L86 324L91 324L86 323z"/>
<path style="fill:#e1ba09; stroke:none;" d="M289 323L290 324L289 323z"/>
<path style="fill:#32ace3; stroke:none;" d="M71 324L70 334L71 334L71 324M85.3333 324.667L85.6667 325.333L85.3333 324.667M91.3333 324.667L91.6667 325.333L91.3333 324.667M158 324L131 325L131 326L152 326L158 324M177.667 324.333L178.333 324.667L177.667 324.333M192.333 324.667L192.667 325.333L192.333 324.667M231 324L231 329L232 329L231 324M275 324L275 331L276 331L275 324M104 325L105 326L104 325M163 325L163 330L164 330L163 325M176 325L176 329L177 329L176 325M179.333 325.667L179.667 326.333L179.333 325.667M256.333 325.667L256.667 326.333L256.333 325.667M314 325L314 331L315 331L314 325M84 326L84 331L85 331L84 326M92 326L92 329L93 329L92 326M130 326L130 332L131 332L130 326M193.333 326.667L193.667 327.333L193.333 326.667M223 326L223 332L224 332L223 326M244.333 326.667L244.667 327.333L244.333 326.667M180.333 327.667L180.667 328.333L180.333 327.667M105.333 328.667L105.667 329.333L105.333 328.667M194.333 328.667L194.667 329.333L194.333 328.667M210 328L210 331L211 331L210 328M255 328L255 333L256 333L255 328z"/>
<path style="fill:#e1ba09; stroke:none;" d="M70 329L71 330L70 329z"/>
<path style="fill:#32ace3; stroke:none;" d="M93 329L94 336L95 336L93 329M144.667 329.333L145.333 329.667L144.667 329.333M181.333 329.667L181.667 330.333L181.333 329.667M243 329L243 334L244 334L243 329M106 330L106 333L107 333L106 330M143 330L144 331L143 330M146 330L147 331L146 330M162 330L162 333L163 333L162 330M195 330L196 331L195 330M230.333 330.667L230.667 331.333L230.333 330.667M289.333 330.667L289.667 331.333L289.333 330.667M301 330L302 331L301 330M83 331L82 341L83 341L83 331M142 331L143 332L142 331M149.667 331.333L150.333 331.667L149.667 331.333M175 331L175 334L176 334L175 331M182.333 331.667L182.667 332.333L182.333 331.667M196.333 331.667L196.667 332.333L196.333 331.667M209 331L209 337L210 337L209 331M276 331L276 335L277 335L276 331M300 331L301 332L300 331M313 331L313 335L314 335L313 331z"/>
<path style="fill:#e1ba09; stroke:none;" d="M93 332L94 333L93 332z"/>
<path style="fill:#32ace3; stroke:none;" d="M131 332L132 333L131 332M141 332L142 333L141 332M151 332L151 333L154 333L151 332M222 332L222 335L223 335L222 332M290 332L291 333L290 332M298.667 332.333L299.333 332.667L298.667 332.333M107 333L107 336L108 336L107 333M132 333L133 334L132 333M139.667 333.333L140.333 333.667L139.667 333.333M154 333L155 334L154 333M183.333 333.667L183.667 334.333L183.333 333.667M197.333 333.667L197.667 334.333L197.333 333.667M254 333L254 338L255 338L254 333M291 333L291 334L298 334L291 333M69 334L69 339L70 339L69 334M133 334L133 335L139 335L133 334M153 334L154 335L153 334M174 334L174 340L175 340L174 334M229 334L229 338L230 338L229 334M242 334L242 339L243 339L242 334M152 335L149 339L152 335M198 335L199 336L198 335M267.333 335.667L267.667 336.333L267.333 335.667M277.333 335.667L277.667 336.333L277.333 335.667M95 336L95 340L96 340L95 336M108 336L108 339L109 339L108 336M161.333 336.667L161.667 337.333L161.333 336.667M184 336L185 337L184 336M312 336L312 340L313 340L312 336M199 337L200 338L199 337M208 337L208 340L209 340L208 337M266 337L265 342L266 337M299.667 337.333L300.333 337.667L299.667 337.333M185 338L186 339L185 338M221 338L221 341L222 341L221 338M228 338L231 342L231 341L228 338M278 338L279 339L278 338M297.667 338.333L298.333 338.667L297.667 338.333M301 338L302 339L301 338M68 339L70 342L68 339M109 339L109 342L110 342L109 339M148 339L149 340L148 339M160 339L162 342L160 339M186.333 339.667L186.667 340.333L186.333 339.667M200 339L201 340L200 339M241 339L240 342L241 339M253 339C253.946 343.413 259.233 342 263 342L263 341L253 339M279 339L280 340L279 339M296 339L297 340L296 339M302 339L303 340L302 339M145 340L145 341L148 341L145 340M173 340L172 342L174 342L173 340M201 340L200 342L202 342L201 340M280 340L280 341L284 342L284 341L280 340M294.667 340.333L295.333 340.667L294.667 340.333M303 340L304 341L303 340M311 340L310 342L312 342L311 340M71 341L71 342L80 342L71 341M81 341L82 342L81 341M96 341L97 342L96 341M99 341L99 342L107 342L99 341M143.667 341.333L144.333 341.667L143.667 341.333M163 341L163 342L170 342L163 341M187 341L188 342L187 341M189 341L189 342L198 342L189 341M208 341L209 342L208 341M211 341L211 342L218 342L211 341M220 341L221 342L220 341z"/>
<path style="fill:#e1ba09; stroke:none;" d="M228 341L229 342L228 341z"/>
<path style="fill:#32ace3; stroke:none;" d="M232 341L232 342L238 342L232 341M292.667 341.333L293.333 341.667L292.667 341.333M304.667 341.333L305.333 341.667L304.667 341.333M307.667 341.333L308.333 341.667L307.667 341.333M130 342L130 343L142 343L130 342M284 342L284 343L291 343L284 342z"/>
</svg>
